<?xml version="1.0" encoding="utf-8"?>
<!-- Generator: Adobe Illustrator 19.0.0, SVG Export Plug-In . SVG Version: 6.00 Build 0)  -->
<svg version="1.1" id="Capa_1" xmlns="http://www.w3.org/2000/svg" xmlns:xlink="http://www.w3.org/1999/xlink" x="0px" y="0px"
	 viewBox="190 -195 512 512" style="enable-background:new 190 -195 512 512;" xml:space="preserve">
<style type="text/css">
	.st0{fill:#FFFFFF;}
</style>
<path id="_x30_6-Movie_Clapper" class="st0" d="M227.4,69.9v230.7c0,9,7.3,16.3,16.3,16.3h429.6c9,0,16.3-7.3,16.3-16.3V21.4H299.8
	C263.3,73.4,259.9,50.6,227.4,69.9z M342.2,76.6h-52.3l26.6-42h52.3L342.2,76.6z M445.7,34.6H498l-26.6,42h-52.3L445.7,34.6z
	 M432.9,237.5V126.7l88.2,55.4L432.9,237.5z M600.6,76.6h-52.3l26.6-42h52.3L600.6,76.6z"/>
<path class="st0" d="M251.1-21.4c-27.1,0-49,21.9-49,49s21.9,49,49,49s49-21.9,49-49S278.1-21.4,251.1-21.4z M251.1,52.5
	c-13.8,0-24.9-11.2-24.9-24.9c0-13.8,11.2-24.9,24.9-24.9c13.8,0,24.9,11.2,24.9,24.9C276,41.3,264.8,52.5,251.1,52.5z"/>
</svg>
